<svg id="Regulus_Prime" data-name="Regulus Prime" xmlns="http://www.w3.org/2000/svg" viewBox="0 0 1999.99794 2000.00075"><defs><style>.cls-1,.cls-14{fill:#eff4ee;}.cls-2{fill:#006c40;}.cls-10,.cls-11,.cls-12,.cls-13,.cls-14,.cls-15,.cls-19,.cls-2,.cls-3,.cls-4,.cls-5,.cls-6,.cls-9{stroke:#15003e;}.cls-10,.cls-11,.cls-13,.cls-14,.cls-15,.cls-16,.cls-19,.cls-2,.cls-4,.cls-5{stroke-linecap:round;}.cls-13,.cls-14,.cls-15,.cls-16,.cls-19,.cls-2,.cls-4,.cls-5{stroke-miterlimit:10;}.cls-10,.cls-11,.cls-12,.cls-13,.cls-14,.cls-15,.cls-16,.cls-19,.cls-2,.cls-3,.cls-4,.cls-5,.cls-6,.cls-9{stroke-width:6px;}.cls-11,.cls-15,.cls-18,.cls-3{fill:#fff;}.cls-10,.cls-11,.cls-12,.cls-3,.cls-6,.cls-9{stroke-linejoin:round;}.cls-4,.cls-6,.cls-8{fill:#25e899;}.cls-12,.cls-5,.cls-7{fill:#15003e;}.cls-10,.cls-13,.cls-16,.cls-9{fill:none;}.cls-16{stroke:#25e899;}.cls-17{fill:#0fce7c;}.cls-19{fill:#ffc371;}</style></defs><title>Loki-04</title><g id="Back"><g id="Background"><rect class="cls-1" width="1999.99794" height="2000.00075"/></g></g><g id="Back_Character" data-name="Back Character"><path class="cls-2" d="M1442.28232,1772.67569H535.21463L666.53571,982.05553C686.35817,862.71419,780.98285,776,891.38864,776h194.71967c110.40579,0,205.03047,86.71419,224.85293,206.05553Z" transform="translate(0.0015 0.00011)"/></g><g id="Regulus_Prime-2" data-name="Regulus Prime"><path class="cls-3" d="M1119.75568,1172.12764H871.98886a106.50722,106.50722,0,0,1-106.50672-106.50683V915.46057h460.78027v150.16024A106.50509,106.50509,0,0,1,1119.75568,1172.12764Z" transform="translate(0.0015 0.00011)"/><path class="cls-4" d="M551.46535,1143.73993V1002.273" transform="translate(0.0015 0.00011)"/><path class="cls-5" d="M551.46263,1504.63066V1377.4438" transform="translate(0.0015 0.00011)"/><path class="cls-6" d="M765.48218,1030.39657h460.78025" transform="translate(0.0015 0.00011)"/><path class="cls-7" d="M765.48218,1030.39516l5.00334,67.56677,45.64336,61.66676,40,3.78667,146.41676,14.26669,150.12007-10.76,50.32006-34.88339,23.27664-66.41677-9.99-35.22672Z" transform="translate(0.0015 0.00011)"/><path class="cls-8" d="M1040.88325,1036.29675a47.56836,47.56836,0,1,0-47.57,47.57007,47.56858,47.56858,0,0,0,47.57-47.57007" transform="translate(0.0015 0.00011)"/><circle class="cls-9" cx="993.31925" cy="1036.29559" r="47.57003"/><path class="cls-7" d="M814.90779,1149.9081a23.22168,23.22168,0,1,0-23.22335,23.22337,23.22237,23.22237,0,0,0,23.22335-23.22337" transform="translate(0.0015 0.00011)"/><path class="cls-7" d="M1222.88725,1149.9081a23.22168,23.22168,0,1,0-23.22335,23.22337,23.22237,23.22237,0,0,0,23.22335-23.22337" transform="translate(0.0015 0.00011)"/><path class="cls-1" d="M1034.20556,1195.96779a38.33336,38.33336,0,1,0-38.33336,38.33339,38.33455,38.33455,0,0,0,38.33336-38.33339" transform="translate(0.0015 0.00011)"/><path class="cls-1" d="M1197.07952,1134.093a14.41334,14.41334,0,1,0-14.41334,14.41335,14.41369,14.41369,0,0,0,14.41334-14.41335" transform="translate(0.0015 0.00011)"/><path class="cls-1" d="M820.51089,1134.093a14.41334,14.41334,0,1,0-14.41334,14.41335,14.41369,14.41369,0,0,0,14.41334-14.41335" transform="translate(0.0015 0.00011)"/><path class="cls-3" d="M782.46756,1480.726H744.4242V1253.79233a38.04336,38.04336,0,1,1,76.08671,0v188.8903A38.04432,38.04432,0,0,1,782.46756,1480.726Z" transform="translate(0.0015 0.00011)"/><path class="cls-10" d="M865.59227,1251.43584v253.19373" transform="translate(0.0015 0.00011)"/><path class="cls-11" d="M840.1601,1627.2502H769.86339a25.435,25.435,0,0,1,0-50.87008H840.1601a25.435,25.435,0,0,1,0,50.87008Z" transform="translate(0.0015 0.00011)"/><path class="cls-11" d="M899.4872,1805.80171H723.8471a34.04839,34.04839,0,1,1,0-68.09678H899.4872a34.04839,34.04839,0,1,1,0,68.09678Z" transform="translate(0.0015 0.00011)"/><rect class="cls-11" x="769.86686" y="1627.24701" width="67.56331" height="110.45346"/><path class="cls-10" d="M744.42864,1540.7474H865.59537" transform="translate(0.0015 0.00011)"/><rect class="cls-12" x="725.10355" y="1805.8025" width="65.21" height="23.9367"/><rect class="cls-12" x="824.09144" y="1805.8025" width="65.21" height="23.9367"/><path class="cls-12" d="M744.42864,1396.57451H820.512" transform="translate(0.0015 0.00011)"/><path class="cls-12" d="M744.42864,1297.68528H820.512" transform="translate(0.0015 0.00011)"/><circle class="cls-11" cx="796.35258" cy="1510.15053" r="28.47002"/><path class="cls-10" d="M803.64232,1576.38256v-35.63339" transform="translate(0.0015 0.00011)"/><path class="cls-10" d="M768.462,1188.71852h46.44336l34.00669,34.00339" transform="translate(0.0015 0.00011)"/><path class="cls-3" d="M1215.52778,1481.64838h38.04336V1254.7147a38.04336,38.04336,0,1,0-76.08671,0V1443.605A38.04432,38.04432,0,0,0,1215.52778,1481.64838Z" transform="translate(0.0015 0.00011)"/><path class="cls-10" d="M1132.40592,1252.36243v253.19373" transform="translate(0.0015 0.00011)"/><path class="cls-11" d="M1157.83979,1628.17679h70.29671a25.435,25.435,0,0,0,0-50.87008h-70.29671a25.435,25.435,0,0,0,0,50.87008Z" transform="translate(0.0015 0.00011)"/><path class="cls-11" d="M1098.51268,1806.72408h175.64011a34.04839,34.04839,0,1,0,0-68.09678H1098.51268a34.04839,34.04839,0,1,0,0,68.09678Z" transform="translate(0.0015 0.00011)"/><rect class="cls-11" x="1160.57316" y="1628.17731" width="67.56331" height="110.45346"/><path class="cls-10" d="M1253.57344,1541.67374H1132.4067" transform="translate(0.0015 0.00011)"/><rect class="cls-12" x="1207.68643" y="1806.72401" width="65.21" height="23.9367"/><rect class="cls-12" x="1108.6965" y="1806.72401" width="65.21" height="23.9367"/><path class="cls-12" d="M1253.57239,1397.49688H1177.489" transform="translate(0.0015 0.00011)"/><path class="cls-12" d="M1253.57239,1298.60765H1177.489" transform="translate(0.0015 0.00011)"/><circle class="cls-11" cx="1201.65016" cy="1511.0802" r="28.47002"/><path class="cls-10" d="M1194.35655,1577.30493v-35.63339" transform="translate(0.0015 0.00011)"/><path class="cls-10" d="M1229.5378,1189.645h-46.44336l-34.00336,34.00339" transform="translate(0.0015 0.00011)"/><path class="cls-11" d="M577.27006,1466.3331H525.6667a49.19816,49.19816,0,0,1-49.2-49.19673V1051.46914a49.19887,49.19887,0,0,1,49.2-49.20008h51.60336a49.19816,49.19816,0,0,1,49.1967,49.20008v365.66723A49.19745,49.19745,0,0,1,577.27006,1466.3331Z" transform="translate(0.0015 0.00011)"/><path class="cls-8" d="M591.18073,1377.44354a39.715,39.715,0,1,0-39.71336,39.71339,39.713,39.713,0,0,0,39.71336-39.71339" transform="translate(0.0015 0.00011)"/><circle class="cls-13" cx="551.46837" cy="1377.44779" r="39.71669"/><path class="cls-10" d="M476.46378,1143.73969H626.46387" transform="translate(0.0015 0.00011)"/><path class="cls-10" d="M476.46378,1234.3029H626.46387" transform="translate(0.0015 0.00011)"/><rect class="cls-7" x="626.4675" y="1024.63866" width="144.34335" height="73.76344"/><path class="cls-14" d="M515.94739,1627.94423v-98.39682a24.93517,24.93517,0,0,1,24.93668-24.9367h21.16668a24.9373,24.9373,0,0,1,24.93668,24.9367v98.39682" transform="translate(0.0015 0.00011)"/><path class="cls-8" d="M586.98623,1627.94589a35.52,35.52,0,1,0-35.52,35.52006,35.52066,35.52066,0,0,0,35.52-35.52006" transform="translate(0.0015 0.00011)"/><circle class="cls-13" cx="551.46837" cy="1627.94296" r="35.52004"/><rect class="cls-7" x="1229.18974" y="1024.63866" width="144.34335" height="73.76344"/><rect class="cls-15" x="824.82826" y="841.73525" width="327.84342" height="73.72672"/><path class="cls-16" d="M862.97441,804.88879h255.71348" transform="translate(0.0015 0.00011)"/><path class="cls-8" d="M814.18537,593.7744h321.41018l27.2367,10.39335-20.48336,73.34678H834.41205Z" transform="translate(0.0015 0.00011)"/><path class="cls-14" d="M1098.81513,768.17531H877.93833a43.52843,43.52843,0,0,1-43.52669-43.53007V677.5185h307.93351v47.12674A43.53127,43.53127,0,0,1,1098.81513,768.17531Z" transform="translate(0.0015 0.00011)"/><path class="cls-17" d="M931.92289,593.77376a137.28061,137.28061,0,0,1-50.7667-213.007c25.17335-30.5,183.51678-32.05,208.66012-3.66667a137.2739,137.2739,0,0,1-47.61669,216.667" transform="translate(0.0015 0.00011)"/><path class="cls-13" d="M923.24963,593.76823a143.58832,143.58832,0,0,1-58.24-206.40366" transform="translate(0.0015 0.00011)"/><path class="cls-13" d="M1101.73193,379.81741a143.56967,143.56967,0,0,1-51.5767,213.217" transform="translate(0.0015 0.00011)"/><path class="cls-13" d="M783.99809,479.04686c0-112.87684,91.50339-204.38032,204.38012-204.38032S1192.76166,366.17,1192.76166,479.04686L1142.3483,677.51717H834.41146Z" transform="translate(0.0015 0.00011)"/><path class="cls-13" d="M799.918,563.45759H778.82129a31.12746,31.12746,0,0,1-31.03669-31.03337V453.60409a31.12746,31.12746,0,0,1,31.03669-31.03338H787.768" transform="translate(0.0015 0.00011)"/><path class="cls-13" d="M1177.5703,563.45759H1198.667a31.12746,31.12746,0,0,0,31.03669-31.03337V453.60409a31.12746,31.12746,0,0,0-31.03669-31.03338h-8.94667" transform="translate(0.0015 0.00011)"/><path class="cls-13" d="M786.19689,444.85936C838.77026,391.01261,911.397,357.70922,991.617,357.70922c75.85672,0,144.92008,29.77671,196.66012,78.54012" transform="translate(0.0015 0.00011)"/><path class="cls-13" d="M814.18537,593.76172h348.64688" transform="translate(0.0015 0.00011)"/><path class="cls-18" d="M1060.10808,422.57071a35.8,35.8,0,1,1-35.8-35.80005,35.8002,35.8002,0,0,1,35.8,35.80005" transform="translate(0.0015 0.00011)"/><path class="cls-18" d="M1085.69012,476.0911a14.475,14.475,0,1,1-14.47668-14.47669,14.477,14.477,0,0,1,14.47668,14.47669" transform="translate(0.0015 0.00011)"/><path class="cls-13" d="M1112.00352,648.97459c-17.63334,0-17.63334-26.66671-35.27-26.66671-17.63334,0-17.63334,26.66671-35.26668,26.66671-17.64,0-17.64-26.66671-35.28-26.66671-17.64668,0-17.64668,26.66671-35.29,26.66671-17.64,0-17.64-26.66671-35.28-26.66671-17.65335,0-17.65335,26.66671-35.30335,26.66671-17.65335,0-17.65335-26.66671-35.30668-26.66671" transform="translate(0.0015 0.00011)"/><path class="cls-5" d="M1513.90261,1833.33523H486.09865" transform="translate(0.0015 0.00011)"/></g><g id="Front_Character" data-name="Front Character"><path class="cls-19" d="M850.7428,160.583C769.926,231.6532,766.43921,293.33228,833.59406,344.52527L872,333C807.26324,291.33069,795.877,242.02893,850.7428,160.583Z" transform="translate(0.0015 0.00011)"/><path class="cls-19" d="M1107.85669,66.40662c149.09082,120.6731,112.75989,218.75354-17.1488,298.62964L1138,379.81741C1246.74971,352,1298.5,154,1107.85669,66.40662Z" transform="translate(0.0015 0.00011)"/><path class="cls-18" d="M1189.59824,133c44.32381,77.26534,33.52284,140.06491-5.09824,191.20849l14.05966,9.46417C1235.34585,286,1246.27535,189.08485,1189.59824,133Z" transform="translate(0.0015 0.00011)"/><path class="cls-19" d="M1188.26,436.24c-51.74-48.76-120.8-78.53-196.64-78.53-79.82,0-152.13,32.97-204.63,86.3501C803.58,347.85,887.43,274.66992,988.38,274.66992,1086.57007,274.66992,1168.59009,343.90991,1188.26,436.24Z" transform="translate(0.0015 0.00011)"/><path class="cls-18" d="M1143.37963,360.23956c-12.40933-13.1818-30.72051-28.00834-52.44749-41.72793-22.86721-14.43958-45.21476-24.93631-62.89725-30.24958,9.51471-4.54,37.15848,4.89252,66.07911,23.15456C1122.24394,329.17937,1142.31438,349.44415,1143.37963,360.23956Z" transform="translate(0.0015 0.00011)"/><path class="cls-13" d="M1188.28,436.25c-.01-.01-.01-.01-.02-.01-51.74-48.76-120.8-78.53-196.64-78.53-79.82,0-152.13,32.97-204.63,86.35-.27.26-.53.53-.79.8" transform="translate(0.0015 0.00011)"/><path class="cls-19" d="M789.34,802.4V913H687.76C710.09,864.9,745.92,826.23,789.34,802.4Z" transform="translate(0.0015 0.00011)"/><path class="cls-19" d="M1289.74,912.3h-99.08008V803.1C1232.96,827.03,1267.84009,865.13007,1289.74,912.3Z" transform="translate(0.0015 0.00011)"/><path class="cls-18" d="M1257.73324,877.02412h-35.06657V838.37591A85.49534,85.49534,0,0,1,1257.73324,877.02412Z" transform="translate(0.0015 0.00011)"/><path class="cls-19" d="M576.6603,572.46571c29.173-4.0474,73.69789,11.24727,102.889,59.41213C709.7075,681.66881,707.5,747.75,684,770.75c-5.33284,5.21937-14.47992-10.6152-22.2921-10.77531.94743-.49079,1.8861-1.02193,2.804-1.60126,28.21487-17.84379,26.62868-72.67085-3.52955-122.46182C637.5522,597.25941,604.66667,583.33333,576.6603,572.46571Z" transform="translate(0.0015 0.00011)"/><path class="cls-19" d="M464.89965,675.97764c-4.0474,29.173,11.24727,73.69789,59.41213,102.889,49.791,30.15822,115.87217,27.95073,138.87217,4.45073,5.21937-5.33284-10.6152-14.47992-10.77531-22.2921-.49079.94743-1.02193,1.88609-1.60126,2.804-17.84379,28.21487-72.67085,26.62868-122.46182-3.52955C489.69335,736.86954,475.76727,703.984,464.89965,675.97764Z" transform="translate(0.0015 0.00011)"/><polygon class="cls-19" points="515.574 643.956 396.248 504.837 540.819 620.364 1518.301 1597.846 1497.086 1619.062 515.574 643.956"/><ellipse class="cls-19" cx="575.2158" cy="675.97764" rx="40.65683" ry="91.49543" transform="translate(-309.51007 604.72837) rotate(-45)"/><path class="cls-11" d="M1145.147,1369.47407l36.48909,36.48909a49.19816,49.19816,0,0,0,69.577.00233l258.56578-258.56578a49.19887,49.19887,0,0,0,0-69.57938l-36.48909-36.48909a49.19816,49.19816,0,0,0-69.577.00239L1145.147,1299.89941A49.19745,49.19745,0,0,0,1145.147,1369.47407Z" transform="translate(0.0015 0.00011)"/><path class="cls-10" d="M1444.53468,1212.64578,1338.4686,1106.57969" transform="translate(0.0015 0.00011)"/><path class="cls-10" d="M1380.49682,1276.68364l-106.06608-106.06608" transform="translate(0.0015 0.00011)"/><path class="cls-4" d="M1391.50265,1159.61408l100.03219-100.03219" transform="translate(0.0015 0.00011)"/><path class="cls-14" d="M1231.51246,1369.83195l69.57942-69.57942a24.93374,24.93374,0,0,0,0-35.2611l-14.96946-14.96946a24.93446,24.93446,0,0,0-35.26345-.00234l-69.57942,69.57942" transform="translate(0.0015 0.00011)"/><path class="cls-8" d="M1181.27924,1319.60108a35.52,35.52,0,1,1,0,50.23292,35.52066,35.52066,0,0,1,0-50.23292" transform="translate(0.0015 0.00011)"/><circle class="cls-13" cx="1206.39447" cy="1344.7178" r="35.52006" transform="translate(-597.51282 1246.90855) rotate(-45)"/></g></svg>